<svg viewBox="0 0 53 41" xmlns="http://www.w3.org/2000/svg">
  <g style="fill:#3688ff;stroke:none" transform="matrix(1, 0, 0, 1.015666, -37.430939, -44.502632)">
    <path
      d="M 83.25 45.746094 C 83.328125 46.667969 83.378906 46.71875 84.300781 46.796875 L 85.246094 46.875 L 85.246094 44.800781 L 83.175781 44.800781 Z M 83.25 45.746094 " />
    <path
      d="M 48.382812 58.1875 L 48.382812 69.835938 L 50.765625 70.988281 C 52.042969 71.628906 54.167969 72.804688 55.425781 73.601562 L 57.726562 75.035156 L 55.9375 73.214844 C 54.964844 72.21875 53.246094 70.679688 52.171875 69.8125 L 50.175781 68.222656 L 50.175781 48.410156 L 50.894531 48.640625 C 52.503906 49.125 53.914062 49.714844 55.449219 50.535156 C 56.34375 50.996094 57.089844 51.355469 57.089844 51.300781 C 57.089844 51.277344 56.34375 50.6875 55.449219 50.046875 C 53.964844 49 50.378906 47.15625 48.972656 46.71875 L 48.382812 46.566406 Z M 48.382812 58.1875 " />
    <path
      d="M 70.628906 47.335938 C 68.660156 48.152344 66.867188 49.152344 65.40625 50.253906 C 63.796875 51.480469 63.769531 51.558594 65.304688 50.714844 C 66.097656 50.277344 67.6875 49.5625 68.839844 49.152344 L 70.910156 48.382812 L 70.910156 68.300781 L 69.582031 69.324219 C 67.839844 70.628906 64 74.214844 64 74.523438 C 64 74.648438 64.792969 74.238281 65.742188 73.625 C 66.6875 73.011719 68.660156 71.910156 70.09375 71.167969 L 72.703125 69.835938 L 72.703125 58.214844 C 72.703125 51.8125 72.628906 46.59375 72.523438 46.617188 C 72.398438 46.617188 71.550781 46.949219 70.628906 47.335938 Z M 70.628906 47.335938 " />
    <path
      d="M 86.015625 48.71875 C 86.015625 49.816406 85.886719 50.203125 85.425781 50.636719 C 84.914062 51.125 84.53125 51.199219 82.609375 51.199219 L 80.382812 51.199219 L 80.382812 56.574219 L 85.761719 56.574219 L 85.761719 54.195312 C 85.761719 51.300781 85.964844 51.019531 88.0625 50.894531 L 89.472656 50.816406 L 89.472656 47.488281 L 87.757812 47.410156 L 86.015625 47.335938 Z M 86.015625 48.71875 " />
    <path
      d="M 45.054688 62.464844 L 45.054688 74.238281 L 46.847656 74.238281 C 48.972656 74.238281 52.914062 74.980469 55.550781 75.851562 C 57.882812 76.644531 57.371094 76.160156 54.144531 74.597656 C 51.941406 73.523438 48.460938 72.449219 47.179688 72.449219 L 46.59375 72.449219 L 46.59375 50.6875 L 45.054688 50.6875 Z M 45.054688 62.464844 " />
    <path
      d="M 74.496094 61.566406 L 74.496094 72.449219 L 73.90625 72.449219 C 72.652344 72.449219 69.246094 73.496094 66.96875 74.597656 C 63.769531 76.132812 63.105469 76.699219 65.40625 75.902344 C 68.070312 75.007812 72.140625 74.238281 74.34375 74.238281 L 76.289062 74.238281 L 76.289062 50.6875 L 74.496094 50.6875 Z M 74.496094 61.566406 " />
    <path
      d="M 39.296875 54.886719 C 38.964844 55.21875 38.628906 55.886719 38.527344 56.34375 C 38.453125 56.832031 38.398438 61.566406 38.453125 66.867188 L 38.527344 76.542969 L 39.246094 77.234375 L 39.9375 77.953125 L 48.332031 78.003906 C 57.625 78.054688 57.625 78.054688 52.222656 76.621094 C 50.226562 76.082031 49 75.957031 45.261719 75.851562 L 40.703125 75.699219 L 40.703125 56.574219 L 43.265625 56.574219 L 43.265625 54.273438 L 41.601562 54.273438 C 40.167969 54.273438 39.832031 54.375 39.296875 54.886719 Z M 39.296875 54.886719 " />
    <path
      d="M 80.382812 67.457031 L 80.382812 75.777344 L 77.003906 75.777344 C 73.0625 75.777344 69.785156 76.238281 66.765625 77.234375 L 64.640625 77.953125 L 72.191406 78.027344 C 76.339844 78.054688 80.101562 78.027344 80.5625 77.953125 C 81.023438 77.875 81.664062 77.464844 82.023438 77.03125 L 82.6875 76.238281 L 82.6875 59.136719 L 80.382812 59.136719 Z M 80.382812 67.457031 " />
    <path
      d="M 59.058594 79.769531 C 58.957031 79.871094 58.878906 80.179688 58.878906 80.433594 C 58.878906 80.84375 58.625 80.894531 56.523438 80.894531 C 55.21875 80.894531 53.992188 81 53.785156 81.125 C 53.605469 81.253906 53.453125 81.664062 53.453125 82.046875 C 53.453125 82.433594 53.605469 82.839844 53.785156 82.96875 C 53.992188 83.097656 57.035156 83.199219 60.59375 83.199219 C 66.097656 83.199219 67.097656 83.148438 67.429688 82.789062 C 67.660156 82.585938 67.839844 82.226562 67.839844 82.046875 C 67.839844 81.175781 67.070312 80.894531 64.640625 80.894531 C 62.363281 80.894531 62.234375 80.871094 62.15625 80.308594 C 62.078125 79.820312 61.902344 79.742188 60.671875 79.667969 C 59.878906 79.617188 59.160156 79.667969 59.058594 79.769531 Z M 59.058594 79.769531 " />
  </g>
</svg>